<?xml version="1.0" encoding="utf-8"?>
<!-- Generator: Adobe Illustrator 16.0.1, SVG Export Plug-In . SVG Version: 6.00 Build 0)  -->
<!DOCTYPE svg PUBLIC "-//W3C//DTD SVG 1.0//EN" "http://www.w3.org/TR/2001/REC-SVG-20010904/DTD/svg10.dtd">
<svg version="1.0" id="SPNlogo-large_xA0_Image_1_" xmlns="http://www.w3.org/2000/svg" xmlns:xlink="http://www.w3.org/1999/xlink"
	 x="0px" y="0px" width="35px" height="42px" viewBox="0 0 35 42" enable-background="new 0 0 35 42" xml:space="preserve">
<rect fill="#8090C4" width="35" height="42"/>
<text transform="matrix(1 0 0 1 9.2456 15.0005)" display="none"><tspan x="0" y="0" display="inline" fill="#000066" font-family="'CrimsonText-Roman'" font-size="14">No</tspan><tspan x="-8.053" y="16.8" display="inline" fill="#000066" font-family="'CrimsonText-Roman'" font-size="14">Photo</tspan></text>
<g>
	<g>
		<path fill="#E5E5E5" d="M31.519,41.91v0.059l-0.044-0.002c-9.305,0-18.609,0-27.913,0c-0.074,0-0.147,0.002-0.221,0.002v-0.029
			l0.06-0.129c0.077-0.324,0.144-0.652,0.226-0.975c0.473-1.854,1.046-3.676,1.679-5.48c0.58-1.65,1.212-3.279,1.967-4.859
			c0.395-0.824,0.82-1.635,1.336-2.391c0.261-0.383,0.543-0.748,0.885-1.062c0.241-0.223,0.502-0.414,0.827-0.496
			c0.434-0.105,0.869-0.203,1.304-0.303c0.053-0.014,0.107-0.027,0.183-0.045l-0.13-0.094c-0.528-0.344-1.026-0.729-1.483-1.164
			c-2.054-1.959-3.183-4.356-3.359-7.191c-0.057-0.911,0.015-1.818,0.205-2.712c0.422-1.992,1.328-3.735,2.748-5.194
			c1.955-2.01,4.337-3.105,7.144-3.255l0.159-0.026c0.236,0,0.472,0,0.708,0l0.188,0.028c0.352,0.034,0.706,0.05,1.055,0.103
			c1.271,0.191,2.468,0.603,3.589,1.232c3.032,1.704,5.196,4.866,5.424,8.646c0.043,0.708,0.016,1.416-0.087,2.119
			c-0.177,1.217-0.548,2.372-1.128,3.457c-0.868,1.625-2.076,2.939-3.614,3.953l-0.141,0.1c0.07,0.018,0.112,0.029,0.155,0.039
			c0.331,0.072,0.661,0.148,0.993,0.215c0.491,0.1,0.917,0.314,1.262,0.684c0.081,0.086,0.164,0.17,0.242,0.258
			c0.382,0.439,0.7,0.926,0.994,1.426c0.629,1.068,1.148,2.193,1.625,3.336c1.025,2.455,1.877,4.973,2.599,7.533
			c0.188,0.666,0.343,1.342,0.513,2.014C31.485,41.771,31.502,41.84,31.519,41.91z M17.34,12.208c0.014-0.45-0.088-0.854-0.214-1.15
			c-0.288-0.674-0.768-1.132-1.494-1.305c-0.378-0.09-0.757-0.088-1.14-0.021c-0.882,0.156-1.646,0.546-2.289,1.167
			c-0.412,0.398-0.71,0.878-0.923,1.409c-0.232,0.577-0.367,1.171-0.279,1.799c0.07,0.504,0.273,0.943,0.653,1.287
			c0.447,0.405,0.986,0.602,1.58,0.648c0.505,0.038,0.998-0.037,1.478-0.204C16.579,15.189,17.354,13.484,17.34,12.208z
			 M16.454,37.479c0.008-0.076,0.02-0.148,0.024-0.221c0.013-0.205,0.022-0.41,0.036-0.617c0.038-0.588,0.078-1.176,0.116-1.764
			c0.011-0.178,0.022-0.354,0.033-0.529c0.028-0.445,0.057-0.891,0.083-1.338c0.014-0.225,0.025-0.451,0.034-0.676
			c0.02-0.506,0.033-1.012,0.059-1.518c0.011-0.205-0.133-0.406-0.407-0.359c-0.385,0.066-0.734,0.199-0.88,0.615l-0.064,0.148
			c-0.185,0.533-0.384,1.062-0.548,1.602c-0.451,1.479-0.82,2.982-1.188,4.484l-0.028,0.166
			C13.852,37.504,16.269,37.51,16.454,37.479z M6.686,37.484c0.073,0.008,0.116,0.014,0.159,0.014c0.487,0.002,0.974,0.002,1.46,0
			c0.144,0,0.143-0.002,0.188-0.148c0.2-0.648,0.391-1.299,0.602-1.943c0.366-1.115,0.738-2.229,1.12-3.338
			c0.215-0.627,0.453-1.246,0.68-1.871l0.011-0.088l-0.083,0.006c-0.197,0.039-0.396,0.076-0.591,0.123
			c-0.393,0.096-0.29,0.016-0.528,0.363c-0.555,0.807-1.027,1.662-1.449,2.547c-0.566,1.186-1.03,2.412-1.391,3.676
			C6.804,37.035,6.749,37.25,6.686,37.484z M23.883,32.566l0.012,0.115c0.055,0.229,0.111,0.457,0.165,0.688
			c0.184,0.787,0.371,1.574,0.551,2.363c0.122,0.535,0.235,1.074,0.352,1.611c0.033,0.15,0.035,0.154,0.195,0.156
			c0.255,0,0.511,0,0.767-0.002l0.145-0.016c-0.132-0.469-0.288-0.912-0.453-1.352c-0.459-1.221-1.007-2.398-1.673-3.521
			L23.883,32.566z"/>
		<path fill-rule="evenodd" clip-rule="evenodd" fill="#E5E5E5" d="M3.34,41.969c0.074,0,0.147-0.002,0.221-0.002
			c9.304,0,18.608,0,27.913,0l0.044,0.002l-0.015,0.029L31.386,42c-9.305,0-18.609,0-27.913-0.004L3.34,41.969z"/>
		<path fill-rule="evenodd" clip-rule="evenodd" fill="#E5E5E5" d="M16.454,37.479c-0.186,0.031-2.603,0.025-2.731-0.006
			l0.028-0.166c0.368-1.502,0.737-3.006,1.188-4.484c0.165-0.539,0.364-1.068,0.548-1.602l0.064-0.148
			c0.146-0.416,0.495-0.549,0.88-0.615c0.274-0.047,0.418,0.154,0.407,0.359c-0.025,0.506-0.039,1.012-0.059,1.518
			c-0.009,0.225-0.02,0.451-0.034,0.676c-0.026,0.447-0.055,0.893-0.083,1.338c-0.011,0.176-0.022,0.352-0.033,0.529
			c-0.039,0.588-0.079,1.176-0.116,1.764c-0.014,0.207-0.023,0.412-0.036,0.617C16.474,37.33,16.462,37.402,16.454,37.479z"/>
		<path fill-rule="evenodd" clip-rule="evenodd" fill="#E5E5E5" d="M6.686,37.484c0.063-0.234,0.118-0.449,0.179-0.66
			c0.361-1.264,0.825-2.49,1.391-3.676c0.422-0.885,0.894-1.74,1.449-2.547c0.238-0.348,0.135-0.268,0.528-0.363
			c0.195-0.047,0.394-0.084,0.591-0.123l0.083-0.006l-0.011,0.088c-0.227,0.625-0.465,1.244-0.68,1.871
			c-0.381,1.109-0.754,2.223-1.12,3.338c-0.211,0.645-0.402,1.295-0.602,1.943c-0.045,0.146-0.045,0.148-0.188,0.148
			c-0.486,0.002-0.973,0.002-1.46,0C6.801,37.498,6.758,37.492,6.686,37.484z"/>
		<path fill-rule="evenodd" clip-rule="evenodd" fill="#E5E5E5" d="M23.883,32.566l0.061,0.043c0.666,1.123,1.214,2.301,1.673,3.521
			c0.165,0.439,0.321,0.883,0.453,1.352l-0.145,0.016C25.669,37.5,25.414,37.5,25.158,37.5c-0.16-0.002-0.162-0.006-0.195-0.156
			c-0.117-0.537-0.23-1.076-0.352-1.611c-0.18-0.789-0.367-1.576-0.551-2.363c-0.054-0.23-0.11-0.459-0.165-0.688L23.883,32.566z"/>
	</g>
	<rect x="10.792" y="9.375" fill="#E5E5E5" width="7.333" height="7.208"/>
	<rect x="6.686" y="33.374" fill="#E5E5E5" width="20.149" height="4.875"/>
	<rect x="7.749" y="29.546" fill="#E5E5E5" width="18.127" height="4.953"/>
</g>
</svg>
